<mxfile host="app.diagrams.net" modified="2022-07-27T17:19:44.192Z" agent="5.0 (Windows NT 10.0; Win64; x64) AppleWebKit/537.36 (KHTML, like Gecko) Chrome/101.0.0.0 Safari/537.36" etag="v8xKTg2Oo9nQ6bmejGF0" version="20.2.2" type="github">
  <diagram id="xr09mZukB8Opfc7cthQ_" name="Page-1">
    <mxGraphModel dx="868" dy="492" grid="1" gridSize="10" guides="1" tooltips="1" connect="1" arrows="1" fold="1" page="1" pageScale="1" pageWidth="850" pageHeight="1100" math="0" shadow="0">
      <root>
        <mxCell id="0" />
        <mxCell id="1" parent="0" />
        <mxCell id="TCStdb06j948CYmOCQHa-2" value="&lt;b&gt;Start&lt;/b&gt;" style="strokeWidth=2;html=1;shape=mxgraph.flowchart.start_2;whiteSpace=wrap;" parent="1" vertex="1">
          <mxGeometry x="410" y="210" width="50" height="30" as="geometry" />
        </mxCell>
        <mxCell id="TCStdb06j948CYmOCQHa-3" value="" style="endArrow=classic;html=1;rounded=0;strokeWidth=2;" parent="1" edge="1">
          <mxGeometry width="50" height="50" relative="1" as="geometry">
            <mxPoint x="434.5" y="240" as="sourcePoint" />
            <mxPoint x="434.5" y="280" as="targetPoint" />
          </mxGeometry>
        </mxCell>
        <mxCell id="TCStdb06j948CYmOCQHa-4" value="&lt;b&gt;Open&lt;br&gt;Page&lt;br&gt;&lt;/b&gt;" style="rounded=0;whiteSpace=wrap;html=1;fillColor=#dae8fc;strokeColor=#6c8ebf;" parent="1" vertex="1">
          <mxGeometry x="405" y="280" width="60" height="30" as="geometry" />
        </mxCell>
        <mxCell id="TCStdb06j948CYmOCQHa-5" value="&lt;b&gt;Enter Login&lt;br&gt;Credentials&lt;br&gt;&lt;/b&gt;" style="rounded=0;whiteSpace=wrap;html=1;fillColor=#dae8fc;strokeColor=#6c8ebf;" parent="1" vertex="1">
          <mxGeometry x="405" y="340" width="65" height="40" as="geometry" />
        </mxCell>
        <mxCell id="TCStdb06j948CYmOCQHa-8" value="&lt;b&gt;Valid&lt;/b&gt;" style="strokeWidth=2;html=1;shape=mxgraph.flowchart.decision;whiteSpace=wrap;fillColor=#fff2cc;strokeColor=#d6b656;" parent="1" vertex="1">
          <mxGeometry x="397.5" y="410" width="75" height="40" as="geometry" />
        </mxCell>
        <mxCell id="TCStdb06j948CYmOCQHa-34" value="" style="edgeStyle=orthogonalEdgeStyle;rounded=0;orthogonalLoop=1;jettySize=auto;html=1;strokeWidth=2;" parent="1" source="TCStdb06j948CYmOCQHa-9" target="TCStdb06j948CYmOCQHa-10" edge="1">
          <mxGeometry relative="1" as="geometry" />
        </mxCell>
        <mxCell id="TCStdb06j948CYmOCQHa-91" value="" style="edgeStyle=orthogonalEdgeStyle;rounded=0;orthogonalLoop=1;jettySize=auto;html=1;strokeWidth=2;" parent="1" source="TCStdb06j948CYmOCQHa-9" edge="1">
          <mxGeometry relative="1" as="geometry">
            <mxPoint x="640" y="840" as="targetPoint" />
            <Array as="points">
              <mxPoint x="700" y="500" />
              <mxPoint x="700" y="810" />
              <mxPoint x="640" y="810" />
            </Array>
          </mxGeometry>
        </mxCell>
        <mxCell id="TCStdb06j948CYmOCQHa-110" value="" style="edgeStyle=orthogonalEdgeStyle;rounded=0;orthogonalLoop=1;jettySize=auto;html=1;strokeWidth=2;" parent="1" source="TCStdb06j948CYmOCQHa-9" edge="1">
          <mxGeometry relative="1" as="geometry">
            <mxPoint x="350" y="850" as="targetPoint" />
            <Array as="points">
              <mxPoint x="130" y="500" />
              <mxPoint x="130" y="830" />
              <mxPoint x="350" y="830" />
            </Array>
          </mxGeometry>
        </mxCell>
        <mxCell id="TCStdb06j948CYmOCQHa-9" value="&lt;b&gt;Dashboard&lt;br&gt;&lt;/b&gt;" style="rounded=0;whiteSpace=wrap;html=1;fillColor=#dae8fc;strokeColor=#6c8ebf;" parent="1" vertex="1">
          <mxGeometry x="405" y="480" width="65" height="30" as="geometry" />
        </mxCell>
        <mxCell id="TCStdb06j948CYmOCQHa-22" value="" style="edgeStyle=orthogonalEdgeStyle;rounded=0;orthogonalLoop=1;jettySize=auto;html=1;strokeWidth=2;entryX=0;entryY=0.5;entryDx=0;entryDy=0;" parent="1" source="TCStdb06j948CYmOCQHa-10" target="TCStdb06j948CYmOCQHa-15" edge="1">
          <mxGeometry relative="1" as="geometry">
            <mxPoint x="537.5" y="555" as="targetPoint" />
          </mxGeometry>
        </mxCell>
        <mxCell id="TCStdb06j948CYmOCQHa-24" value="" style="edgeStyle=orthogonalEdgeStyle;rounded=0;orthogonalLoop=1;jettySize=auto;html=1;strokeWidth=2;entryX=1;entryY=0.5;entryDx=0;entryDy=0;" parent="1" source="TCStdb06j948CYmOCQHa-10" target="TCStdb06j948CYmOCQHa-14" edge="1">
          <mxGeometry relative="1" as="geometry">
            <mxPoint x="337.5" y="555" as="targetPoint" />
          </mxGeometry>
        </mxCell>
        <mxCell id="TCStdb06j948CYmOCQHa-10" value="&lt;b&gt;Profile Button&lt;br&gt;&lt;/b&gt;" style="rounded=0;whiteSpace=wrap;html=1;fillColor=#dae8fc;strokeColor=#6c8ebf;" parent="1" vertex="1">
          <mxGeometry x="407.5" y="540" width="60" height="30" as="geometry" />
        </mxCell>
        <mxCell id="TCStdb06j948CYmOCQHa-20" value="" style="edgeStyle=orthogonalEdgeStyle;rounded=0;orthogonalLoop=1;jettySize=auto;html=1;strokeWidth=2;" parent="1" source="TCStdb06j948CYmOCQHa-11" target="TCStdb06j948CYmOCQHa-13" edge="1">
          <mxGeometry relative="1" as="geometry" />
        </mxCell>
        <mxCell id="TCStdb06j948CYmOCQHa-11" value="&lt;b&gt;Valid&lt;/b&gt;" style="strokeWidth=2;html=1;shape=mxgraph.flowchart.decision;whiteSpace=wrap;fillColor=#fff2cc;strokeColor=#d6b656;" parent="1" vertex="1">
          <mxGeometry x="600" y="670" width="75" height="40" as="geometry" />
        </mxCell>
        <mxCell id="TCStdb06j948CYmOCQHa-12" value="&lt;b&gt;New Pass&lt;br&gt;Confirm Pass&lt;br&gt;&lt;/b&gt;" style="rounded=0;whiteSpace=wrap;html=1;fillColor=#dae8fc;strokeColor=#6c8ebf;" parent="1" vertex="1">
          <mxGeometry x="600" y="600" width="75" height="40" as="geometry" />
        </mxCell>
        <mxCell id="TCStdb06j948CYmOCQHa-67" value="" style="edgeStyle=orthogonalEdgeStyle;rounded=0;orthogonalLoop=1;jettySize=auto;html=1;strokeWidth=2;entryX=1;entryY=0.5;entryDx=0;entryDy=0;entryPerimeter=0;" parent="1" source="TCStdb06j948CYmOCQHa-13" target="TCStdb06j948CYmOCQHa-65" edge="1">
          <mxGeometry relative="1" as="geometry">
            <mxPoint x="522.5" y="755" as="targetPoint" />
          </mxGeometry>
        </mxCell>
        <mxCell id="TCStdb06j948CYmOCQHa-13" value="&lt;b&gt;Successfully&lt;br&gt;Changed&lt;br&gt;&lt;/b&gt;" style="rounded=0;whiteSpace=wrap;html=1;fillColor=#dae8fc;strokeColor=#6c8ebf;" parent="1" vertex="1">
          <mxGeometry x="600" y="740" width="75" height="30" as="geometry" />
        </mxCell>
        <mxCell id="TCStdb06j948CYmOCQHa-61" value="" style="edgeStyle=orthogonalEdgeStyle;rounded=0;orthogonalLoop=1;jettySize=auto;html=1;strokeWidth=2;exitX=0.867;exitY=1.1;exitDx=0;exitDy=0;exitPerimeter=0;" parent="1" source="TCStdb06j948CYmOCQHa-14" target="TCStdb06j948CYmOCQHa-57" edge="1">
          <mxGeometry relative="1" as="geometry">
            <Array as="points">
              <mxPoint x="242" y="590" />
              <mxPoint x="280" y="590" />
            </Array>
          </mxGeometry>
        </mxCell>
        <mxCell id="TCStdb06j948CYmOCQHa-73" value="" style="edgeStyle=orthogonalEdgeStyle;rounded=0;orthogonalLoop=1;jettySize=auto;html=1;strokeWidth=2;entryX=0.5;entryY=0;entryDx=0;entryDy=0;" parent="1" source="TCStdb06j948CYmOCQHa-14" target="TCStdb06j948CYmOCQHa-68" edge="1">
          <mxGeometry relative="1" as="geometry">
            <mxPoint x="160" y="590" as="targetPoint" />
            <Array as="points">
              <mxPoint x="200" y="590" />
              <mxPoint x="170" y="590" />
            </Array>
          </mxGeometry>
        </mxCell>
        <mxCell id="TCStdb06j948CYmOCQHa-14" value="&lt;b&gt;Profile&lt;br&gt;&lt;/b&gt;" style="rounded=0;whiteSpace=wrap;html=1;fillColor=#dae8fc;strokeColor=#6c8ebf;" parent="1" vertex="1">
          <mxGeometry x="190" y="540" width="60" height="30" as="geometry" />
        </mxCell>
        <mxCell id="TCStdb06j948CYmOCQHa-16" value="" style="edgeStyle=orthogonalEdgeStyle;rounded=0;orthogonalLoop=1;jettySize=auto;html=1;strokeWidth=2;" parent="1" source="TCStdb06j948CYmOCQHa-15" target="TCStdb06j948CYmOCQHa-12" edge="1">
          <mxGeometry relative="1" as="geometry" />
        </mxCell>
        <mxCell id="TCStdb06j948CYmOCQHa-15" value="&lt;b&gt;Change&lt;br&gt;Password&lt;br&gt;&lt;/b&gt;" style="rounded=0;whiteSpace=wrap;html=1;fillColor=#dae8fc;strokeColor=#6c8ebf;" parent="1" vertex="1">
          <mxGeometry x="607.5" y="540" width="60" height="30" as="geometry" />
        </mxCell>
        <mxCell id="TCStdb06j948CYmOCQHa-19" value="" style="edgeStyle=orthogonalEdgeStyle;rounded=0;orthogonalLoop=1;jettySize=auto;html=1;strokeWidth=2;" parent="1" edge="1">
          <mxGeometry relative="1" as="geometry">
            <mxPoint x="637" y="640" as="sourcePoint" />
            <mxPoint x="637" y="670" as="targetPoint" />
          </mxGeometry>
        </mxCell>
        <mxCell id="TCStdb06j948CYmOCQHa-27" value="" style="endArrow=classic;html=1;rounded=0;strokeWidth=2;entryX=0;entryY=0.5;entryDx=0;entryDy=0;" parent="1" target="TCStdb06j948CYmOCQHa-12" edge="1">
          <mxGeometry width="50" height="50" relative="1" as="geometry">
            <mxPoint x="600" y="689.5" as="sourcePoint" />
            <mxPoint x="560" y="620" as="targetPoint" />
            <Array as="points">
              <mxPoint x="560" y="690" />
              <mxPoint x="560" y="620" />
            </Array>
          </mxGeometry>
        </mxCell>
        <mxCell id="TCStdb06j948CYmOCQHa-30" value="" style="endArrow=classic;html=1;rounded=0;strokeWidth=2;" parent="1" edge="1">
          <mxGeometry width="50" height="50" relative="1" as="geometry">
            <mxPoint x="437" y="310" as="sourcePoint" />
            <mxPoint x="437" y="340" as="targetPoint" />
          </mxGeometry>
        </mxCell>
        <mxCell id="TCStdb06j948CYmOCQHa-32" value="" style="endArrow=classic;html=1;rounded=0;strokeWidth=2;" parent="1" edge="1">
          <mxGeometry width="50" height="50" relative="1" as="geometry">
            <mxPoint x="437" y="380" as="sourcePoint" />
            <mxPoint x="437" y="410" as="targetPoint" />
          </mxGeometry>
        </mxCell>
        <mxCell id="TCStdb06j948CYmOCQHa-33" value="" style="endArrow=classic;html=1;rounded=0;strokeWidth=2;" parent="1" edge="1">
          <mxGeometry width="50" height="50" relative="1" as="geometry">
            <mxPoint x="437" y="450" as="sourcePoint" />
            <mxPoint x="437" y="480" as="targetPoint" />
          </mxGeometry>
        </mxCell>
        <mxCell id="TCStdb06j948CYmOCQHa-35" value="1" style="text;html=1;align=center;verticalAlign=middle;resizable=0;points=[];autosize=1;strokeColor=none;fillColor=none;" parent="1" vertex="1">
          <mxGeometry x="425" y="240" width="30" height="30" as="geometry" />
        </mxCell>
        <mxCell id="TCStdb06j948CYmOCQHa-37" value="2" style="text;html=1;align=center;verticalAlign=middle;resizable=0;points=[];autosize=1;strokeColor=none;fillColor=none;" parent="1" vertex="1">
          <mxGeometry x="435" y="305" width="30" height="30" as="geometry" />
        </mxCell>
        <mxCell id="TCStdb06j948CYmOCQHa-38" value="3" style="text;html=1;align=center;verticalAlign=middle;resizable=0;points=[];autosize=1;strokeColor=none;fillColor=none;" parent="1" vertex="1">
          <mxGeometry x="435" y="385" width="30" height="30" as="geometry" />
        </mxCell>
        <mxCell id="TCStdb06j948CYmOCQHa-39" value="4" style="text;html=1;align=center;verticalAlign=middle;resizable=0;points=[];autosize=1;strokeColor=none;fillColor=none;" parent="1" vertex="1">
          <mxGeometry x="430" y="445" width="30" height="30" as="geometry" />
        </mxCell>
        <mxCell id="TCStdb06j948CYmOCQHa-40" value="5" style="text;html=1;align=center;verticalAlign=middle;resizable=0;points=[];autosize=1;strokeColor=none;fillColor=none;" parent="1" vertex="1">
          <mxGeometry x="360" y="385" width="30" height="30" as="geometry" />
        </mxCell>
        <mxCell id="TCStdb06j948CYmOCQHa-41" value="6" style="text;html=1;align=center;verticalAlign=middle;resizable=0;points=[];autosize=1;strokeColor=none;fillColor=none;" parent="1" vertex="1">
          <mxGeometry x="435" y="505" width="30" height="30" as="geometry" />
        </mxCell>
        <mxCell id="TCStdb06j948CYmOCQHa-44" value="" style="endArrow=classic;html=1;rounded=0;strokeWidth=2;entryX=0;entryY=0.5;entryDx=0;entryDy=0;" parent="1" target="TCStdb06j948CYmOCQHa-5" edge="1">
          <mxGeometry width="50" height="50" relative="1" as="geometry">
            <mxPoint x="397.5" y="429.5" as="sourcePoint" />
            <mxPoint x="360" y="360" as="targetPoint" />
            <Array as="points">
              <mxPoint x="360" y="430" />
              <mxPoint x="360" y="360" />
            </Array>
          </mxGeometry>
        </mxCell>
        <mxCell id="TCStdb06j948CYmOCQHa-47" value="If invalid" style="text;html=1;align=center;verticalAlign=middle;resizable=0;points=[];autosize=1;strokeColor=none;fillColor=none;" parent="1" vertex="1">
          <mxGeometry x="300" y="395" width="70" height="30" as="geometry" />
        </mxCell>
        <mxCell id="TCStdb06j948CYmOCQHa-48" value="7" style="text;html=1;align=center;verticalAlign=middle;resizable=0;points=[];autosize=1;strokeColor=none;fillColor=none;" parent="1" vertex="1">
          <mxGeometry x="490" y="530" width="30" height="30" as="geometry" />
        </mxCell>
        <mxCell id="TCStdb06j948CYmOCQHa-49" value="8" style="text;html=1;align=center;verticalAlign=middle;resizable=0;points=[];autosize=1;strokeColor=none;fillColor=none;" parent="1" vertex="1">
          <mxGeometry x="635" y="565" width="30" height="30" as="geometry" />
        </mxCell>
        <mxCell id="TCStdb06j948CYmOCQHa-50" value="9" style="text;html=1;align=center;verticalAlign=middle;resizable=0;points=[];autosize=1;strokeColor=none;fillColor=none;" parent="1" vertex="1">
          <mxGeometry x="635" y="635" width="30" height="30" as="geometry" />
        </mxCell>
        <mxCell id="TCStdb06j948CYmOCQHa-51" value="10" style="text;html=1;align=center;verticalAlign=middle;resizable=0;points=[];autosize=1;strokeColor=none;fillColor=none;" parent="1" vertex="1">
          <mxGeometry x="550" y="645" width="40" height="30" as="geometry" />
        </mxCell>
        <mxCell id="TCStdb06j948CYmOCQHa-52" value="If invalid" style="text;whiteSpace=wrap;html=1;" parent="1" vertex="1">
          <mxGeometry x="510" y="660" width="80" height="40" as="geometry" />
        </mxCell>
        <mxCell id="TCStdb06j948CYmOCQHa-79" value="" style="edgeStyle=orthogonalEdgeStyle;rounded=0;orthogonalLoop=1;jettySize=auto;html=1;strokeWidth=2;" parent="1" source="TCStdb06j948CYmOCQHa-57" target="TCStdb06j948CYmOCQHa-78" edge="1">
          <mxGeometry relative="1" as="geometry" />
        </mxCell>
        <mxCell id="TCStdb06j948CYmOCQHa-57" value="&lt;b&gt;Personal&lt;br&gt;Info&lt;br&gt;&lt;/b&gt;" style="rounded=0;whiteSpace=wrap;html=1;fillColor=#dae8fc;strokeColor=#6c8ebf;" parent="1" vertex="1">
          <mxGeometry x="250" y="610" width="60" height="30" as="geometry" />
        </mxCell>
        <mxCell id="TCStdb06j948CYmOCQHa-63" value="13" style="text;html=1;align=center;verticalAlign=middle;resizable=0;points=[];autosize=1;strokeColor=none;fillColor=none;" parent="1" vertex="1">
          <mxGeometry x="330" y="525" width="40" height="30" as="geometry" />
        </mxCell>
        <mxCell id="TCStdb06j948CYmOCQHa-64" value="11" style="text;html=1;align=center;verticalAlign=middle;resizable=0;points=[];autosize=1;strokeColor=none;fillColor=none;" parent="1" vertex="1">
          <mxGeometry x="630" y="705" width="40" height="30" as="geometry" />
        </mxCell>
        <mxCell id="TCStdb06j948CYmOCQHa-65" value="&lt;b&gt;End&lt;/b&gt;" style="strokeWidth=2;html=1;shape=mxgraph.flowchart.start_1;whiteSpace=wrap;" parent="1" vertex="1">
          <mxGeometry x="405" y="740" width="75" height="30" as="geometry" />
        </mxCell>
        <mxCell id="TCStdb06j948CYmOCQHa-86" value="" style="edgeStyle=orthogonalEdgeStyle;rounded=0;orthogonalLoop=1;jettySize=auto;html=1;strokeWidth=2;" parent="1" source="TCStdb06j948CYmOCQHa-68" edge="1">
          <mxGeometry relative="1" as="geometry">
            <mxPoint x="410" y="770" as="targetPoint" />
            <Array as="points">
              <mxPoint x="170" y="790" />
              <mxPoint x="410" y="790" />
              <mxPoint x="410" y="773" />
            </Array>
          </mxGeometry>
        </mxCell>
        <mxCell id="TCStdb06j948CYmOCQHa-68" value="&lt;b&gt;Show Overview&lt;br&gt;&lt;/b&gt;" style="rounded=0;whiteSpace=wrap;html=1;fillColor=#dae8fc;strokeColor=#6c8ebf;" parent="1" vertex="1">
          <mxGeometry x="140" y="610" width="60" height="30" as="geometry" />
        </mxCell>
        <mxCell id="TCStdb06j948CYmOCQHa-71" value="12" style="text;html=1;align=center;verticalAlign=middle;resizable=0;points=[];autosize=1;strokeColor=none;fillColor=none;" parent="1" vertex="1">
          <mxGeometry x="530" y="730" width="40" height="30" as="geometry" />
        </mxCell>
        <mxCell id="TCStdb06j948CYmOCQHa-74" value="14" style="text;html=1;align=center;verticalAlign=middle;resizable=0;points=[];autosize=1;strokeColor=none;fillColor=none;" parent="1" vertex="1">
          <mxGeometry x="160" y="565" width="40" height="30" as="geometry" />
        </mxCell>
        <mxCell id="TCStdb06j948CYmOCQHa-75" value="15" style="text;html=1;align=center;verticalAlign=middle;resizable=0;points=[];autosize=1;strokeColor=none;fillColor=none;" parent="1" vertex="1">
          <mxGeometry x="160" y="640" width="40" height="30" as="geometry" />
        </mxCell>
        <mxCell id="TCStdb06j948CYmOCQHa-81" value="" style="edgeStyle=orthogonalEdgeStyle;rounded=0;orthogonalLoop=1;jettySize=auto;html=1;strokeWidth=2;" parent="1" source="TCStdb06j948CYmOCQHa-78" target="TCStdb06j948CYmOCQHa-80" edge="1">
          <mxGeometry relative="1" as="geometry" />
        </mxCell>
        <mxCell id="TCStdb06j948CYmOCQHa-78" value="&lt;b&gt;Enter&lt;br&gt;Details&lt;br&gt;&lt;/b&gt;" style="rounded=0;whiteSpace=wrap;html=1;fillColor=#dae8fc;strokeColor=#6c8ebf;" parent="1" vertex="1">
          <mxGeometry x="250" y="675" width="60" height="30" as="geometry" />
        </mxCell>
        <mxCell id="TCStdb06j948CYmOCQHa-84" value="" style="edgeStyle=orthogonalEdgeStyle;rounded=0;orthogonalLoop=1;jettySize=auto;html=1;strokeWidth=2;" parent="1" source="TCStdb06j948CYmOCQHa-80" target="TCStdb06j948CYmOCQHa-65" edge="1">
          <mxGeometry relative="1" as="geometry" />
        </mxCell>
        <mxCell id="TCStdb06j948CYmOCQHa-80" value="&lt;b&gt;Save&lt;br&gt;Details&lt;br&gt;&lt;/b&gt;" style="rounded=0;whiteSpace=wrap;html=1;fillColor=#dae8fc;strokeColor=#6c8ebf;" parent="1" vertex="1">
          <mxGeometry x="250" y="740" width="60" height="30" as="geometry" />
        </mxCell>
        <mxCell id="TCStdb06j948CYmOCQHa-87" value="16" style="text;html=1;align=center;verticalAlign=middle;resizable=0;points=[];autosize=1;strokeColor=none;fillColor=none;" parent="1" vertex="1">
          <mxGeometry x="240" y="565" width="40" height="30" as="geometry" />
        </mxCell>
        <mxCell id="TCStdb06j948CYmOCQHa-88" value="17" style="text;html=1;align=center;verticalAlign=middle;resizable=0;points=[];autosize=1;strokeColor=none;fillColor=none;" parent="1" vertex="1">
          <mxGeometry x="270" y="635" width="40" height="30" as="geometry" />
        </mxCell>
        <mxCell id="TCStdb06j948CYmOCQHa-89" value="18" style="text;html=1;align=center;verticalAlign=middle;resizable=0;points=[];autosize=1;strokeColor=none;fillColor=none;" parent="1" vertex="1">
          <mxGeometry x="270" y="705" width="40" height="30" as="geometry" />
        </mxCell>
        <mxCell id="TCStdb06j948CYmOCQHa-90" value="19" style="text;html=1;align=center;verticalAlign=middle;resizable=0;points=[];autosize=1;strokeColor=none;fillColor=none;" parent="1" vertex="1">
          <mxGeometry x="310" y="730" width="40" height="30" as="geometry" />
        </mxCell>
        <mxCell id="TCStdb06j948CYmOCQHa-97" value="" style="edgeStyle=orthogonalEdgeStyle;rounded=0;orthogonalLoop=1;jettySize=auto;html=1;strokeWidth=2;" parent="1" source="TCStdb06j948CYmOCQHa-92" target="TCStdb06j948CYmOCQHa-96" edge="1">
          <mxGeometry relative="1" as="geometry" />
        </mxCell>
        <mxCell id="TCStdb06j948CYmOCQHa-92" value="&lt;b&gt;Leaves&lt;br&gt;&lt;/b&gt;" style="rounded=0;whiteSpace=wrap;html=1;fillColor=#dae8fc;strokeColor=#6c8ebf;" parent="1" vertex="1">
          <mxGeometry x="607.5" y="840" width="65" height="30" as="geometry" />
        </mxCell>
        <mxCell id="TCStdb06j948CYmOCQHa-99" value="" style="edgeStyle=orthogonalEdgeStyle;rounded=0;orthogonalLoop=1;jettySize=auto;html=1;strokeWidth=2;" parent="1" source="TCStdb06j948CYmOCQHa-96" target="TCStdb06j948CYmOCQHa-98" edge="1">
          <mxGeometry relative="1" as="geometry" />
        </mxCell>
        <mxCell id="TCStdb06j948CYmOCQHa-96" value="&lt;b&gt;My&lt;br&gt;Leaves&lt;br&gt;&lt;/b&gt;" style="rounded=0;whiteSpace=wrap;html=1;fillColor=#dae8fc;strokeColor=#6c8ebf;" parent="1" vertex="1">
          <mxGeometry x="607.5" y="910" width="65" height="30" as="geometry" />
        </mxCell>
        <mxCell id="TCStdb06j948CYmOCQHa-101" value="" style="edgeStyle=orthogonalEdgeStyle;rounded=0;orthogonalLoop=1;jettySize=auto;html=1;strokeWidth=2;" parent="1" source="TCStdb06j948CYmOCQHa-98" target="TCStdb06j948CYmOCQHa-100" edge="1">
          <mxGeometry relative="1" as="geometry" />
        </mxCell>
        <mxCell id="TCStdb06j948CYmOCQHa-98" value="&lt;b&gt;Apply&lt;br&gt;Leaves&lt;br&gt;&lt;/b&gt;" style="rounded=0;whiteSpace=wrap;html=1;fillColor=#dae8fc;strokeColor=#6c8ebf;" parent="1" vertex="1">
          <mxGeometry x="607.5" y="980" width="65" height="30" as="geometry" />
        </mxCell>
        <mxCell id="TCStdb06j948CYmOCQHa-103" value="" style="edgeStyle=orthogonalEdgeStyle;rounded=0;orthogonalLoop=1;jettySize=auto;html=1;strokeWidth=2;" parent="1" source="TCStdb06j948CYmOCQHa-100" target="TCStdb06j948CYmOCQHa-102" edge="1">
          <mxGeometry relative="1" as="geometry" />
        </mxCell>
        <mxCell id="TCStdb06j948CYmOCQHa-100" value="&lt;b&gt;Enter Leave&lt;br&gt;Details&lt;br&gt;&lt;/b&gt;" style="rounded=0;whiteSpace=wrap;html=1;fillColor=#dae8fc;strokeColor=#6c8ebf;" parent="1" vertex="1">
          <mxGeometry x="603.75" y="1050" width="72.5" height="40" as="geometry" />
        </mxCell>
        <mxCell id="TCStdb06j948CYmOCQHa-112" value="" style="edgeStyle=orthogonalEdgeStyle;rounded=0;orthogonalLoop=1;jettySize=auto;html=1;strokeWidth=2;entryX=0.855;entryY=0.855;entryDx=0;entryDy=0;entryPerimeter=0;" parent="1" source="TCStdb06j948CYmOCQHa-102" target="TCStdb06j948CYmOCQHa-65" edge="1">
          <mxGeometry relative="1" as="geometry">
            <mxPoint x="527.5" y="1150" as="targetPoint" />
          </mxGeometry>
        </mxCell>
        <mxCell id="TCStdb06j948CYmOCQHa-102" value="&lt;b&gt;Leave Applied Successfully&lt;br&gt;&lt;/b&gt;" style="rounded=0;whiteSpace=wrap;html=1;fillColor=#dae8fc;strokeColor=#6c8ebf;" parent="1" vertex="1">
          <mxGeometry x="603.75" y="1130" width="72.5" height="40" as="geometry" />
        </mxCell>
        <mxCell id="TCStdb06j948CYmOCQHa-105" value="20" style="text;html=1;align=center;verticalAlign=middle;resizable=0;points=[];autosize=1;strokeColor=none;fillColor=none;" parent="1" vertex="1">
          <mxGeometry x="470" y="475" width="40" height="30" as="geometry" />
        </mxCell>
        <mxCell id="TCStdb06j948CYmOCQHa-106" value="21" style="text;html=1;align=center;verticalAlign=middle;resizable=0;points=[];autosize=1;strokeColor=none;fillColor=none;" parent="1" vertex="1">
          <mxGeometry x="630" y="865" width="40" height="30" as="geometry" />
        </mxCell>
        <mxCell id="TCStdb06j948CYmOCQHa-107" value="22" style="text;html=1;align=center;verticalAlign=middle;resizable=0;points=[];autosize=1;strokeColor=none;fillColor=none;" parent="1" vertex="1">
          <mxGeometry x="630" y="935" width="40" height="30" as="geometry" />
        </mxCell>
        <mxCell id="TCStdb06j948CYmOCQHa-108" value="23" style="text;html=1;align=center;verticalAlign=middle;resizable=0;points=[];autosize=1;strokeColor=none;fillColor=none;" parent="1" vertex="1">
          <mxGeometry x="630" y="1005" width="40" height="30" as="geometry" />
        </mxCell>
        <mxCell id="TCStdb06j948CYmOCQHa-109" value="24" style="text;html=1;align=center;verticalAlign=middle;resizable=0;points=[];autosize=1;strokeColor=none;fillColor=none;" parent="1" vertex="1">
          <mxGeometry x="630" y="1095" width="40" height="30" as="geometry" />
        </mxCell>
        <mxCell id="TCStdb06j948CYmOCQHa-113" value="25" style="text;html=1;align=center;verticalAlign=middle;resizable=0;points=[];autosize=1;strokeColor=none;fillColor=none;" parent="1" vertex="1">
          <mxGeometry x="560" y="1125" width="40" height="30" as="geometry" />
        </mxCell>
        <mxCell id="NhXCefvA0unEZyHpsOm--17" value="" style="edgeStyle=orthogonalEdgeStyle;rounded=0;orthogonalLoop=1;jettySize=auto;html=1;strokeWidth=2;exitX=1.15;exitY=-0.133;exitDx=0;exitDy=0;exitPerimeter=0;" edge="1" parent="1" source="TCStdb06j948CYmOCQHa-114">
          <mxGeometry relative="1" as="geometry">
            <mxPoint x="170" y="890" as="targetPoint" />
            <Array as="points">
              <mxPoint x="406" y="490" />
              <mxPoint x="90" y="490" />
              <mxPoint x="90" y="860" />
              <mxPoint x="170" y="860" />
            </Array>
          </mxGeometry>
        </mxCell>
        <mxCell id="TCStdb06j948CYmOCQHa-114" value="26" style="text;html=1;align=center;verticalAlign=middle;resizable=0;points=[];autosize=1;strokeColor=none;fillColor=none;" parent="1" vertex="1">
          <mxGeometry x="360" y="495" width="40" height="30" as="geometry" />
        </mxCell>
        <mxCell id="NhXCefvA0unEZyHpsOm--3" value="" style="edgeStyle=orthogonalEdgeStyle;rounded=0;orthogonalLoop=1;jettySize=auto;html=1;strokeWidth=2;" edge="1" parent="1" source="NhXCefvA0unEZyHpsOm--1" target="NhXCefvA0unEZyHpsOm--2">
          <mxGeometry relative="1" as="geometry" />
        </mxCell>
        <mxCell id="NhXCefvA0unEZyHpsOm--1" value="&lt;b&gt;Holydays&lt;br&gt;&lt;/b&gt;" style="rounded=0;whiteSpace=wrap;html=1;fillColor=#dae8fc;strokeColor=#6c8ebf;" vertex="1" parent="1">
          <mxGeometry x="320" y="850" width="60" height="30" as="geometry" />
        </mxCell>
        <mxCell id="NhXCefvA0unEZyHpsOm--5" value="" style="edgeStyle=orthogonalEdgeStyle;rounded=0;orthogonalLoop=1;jettySize=auto;html=1;strokeWidth=2;" edge="1" parent="1" source="NhXCefvA0unEZyHpsOm--2" target="NhXCefvA0unEZyHpsOm--4">
          <mxGeometry relative="1" as="geometry" />
        </mxCell>
        <mxCell id="NhXCefvA0unEZyHpsOm--10" value="" style="edgeStyle=orthogonalEdgeStyle;rounded=0;orthogonalLoop=1;jettySize=auto;html=1;strokeWidth=2;" edge="1" parent="1" source="NhXCefvA0unEZyHpsOm--2" target="NhXCefvA0unEZyHpsOm--6">
          <mxGeometry relative="1" as="geometry" />
        </mxCell>
        <mxCell id="NhXCefvA0unEZyHpsOm--2" value="&lt;b&gt;Show&lt;br&gt;Holydays&lt;br&gt;&lt;/b&gt;" style="rounded=0;whiteSpace=wrap;html=1;fillColor=#dae8fc;strokeColor=#6c8ebf;" vertex="1" parent="1">
          <mxGeometry x="320" y="920" width="60" height="30" as="geometry" />
        </mxCell>
        <mxCell id="NhXCefvA0unEZyHpsOm--7" value="" style="edgeStyle=orthogonalEdgeStyle;rounded=0;orthogonalLoop=1;jettySize=auto;html=1;strokeWidth=2;" edge="1" parent="1" source="NhXCefvA0unEZyHpsOm--4" target="NhXCefvA0unEZyHpsOm--6">
          <mxGeometry relative="1" as="geometry" />
        </mxCell>
        <mxCell id="NhXCefvA0unEZyHpsOm--4" value="&lt;b&gt;Search&lt;br&gt;&lt;/b&gt;" style="rounded=0;whiteSpace=wrap;html=1;fillColor=#dae8fc;strokeColor=#6c8ebf;" vertex="1" parent="1">
          <mxGeometry x="320" y="990" width="60" height="30" as="geometry" />
        </mxCell>
        <mxCell id="NhXCefvA0unEZyHpsOm--14" value="" style="edgeStyle=orthogonalEdgeStyle;rounded=0;orthogonalLoop=1;jettySize=auto;html=1;strokeWidth=2;entryX=0.253;entryY=0.933;entryDx=0;entryDy=0;entryPerimeter=0;" edge="1" parent="1" source="NhXCefvA0unEZyHpsOm--6" target="TCStdb06j948CYmOCQHa-65">
          <mxGeometry relative="1" as="geometry">
            <mxPoint x="420" y="1075" as="targetPoint" />
          </mxGeometry>
        </mxCell>
        <mxCell id="NhXCefvA0unEZyHpsOm--6" value="&lt;b&gt;Search&lt;br&gt;Holydays&lt;br&gt;&lt;/b&gt;" style="rounded=0;whiteSpace=wrap;html=1;fillColor=#dae8fc;strokeColor=#6c8ebf;" vertex="1" parent="1">
          <mxGeometry x="320" y="1060" width="60" height="30" as="geometry" />
        </mxCell>
        <mxCell id="NhXCefvA0unEZyHpsOm--9" value="27" style="text;html=1;align=center;verticalAlign=middle;resizable=0;points=[];autosize=1;strokeColor=none;fillColor=none;" vertex="1" parent="1">
          <mxGeometry x="340" y="875" width="40" height="30" as="geometry" />
        </mxCell>
        <mxCell id="NhXCefvA0unEZyHpsOm--11" value="28" style="text;html=1;align=center;verticalAlign=middle;resizable=0;points=[];autosize=1;strokeColor=none;fillColor=none;" vertex="1" parent="1">
          <mxGeometry x="340" y="945" width="40" height="30" as="geometry" />
        </mxCell>
        <mxCell id="NhXCefvA0unEZyHpsOm--12" value="29" style="text;html=1;align=center;verticalAlign=middle;resizable=0;points=[];autosize=1;strokeColor=none;fillColor=none;" vertex="1" parent="1">
          <mxGeometry x="340" y="1015" width="40" height="30" as="geometry" />
        </mxCell>
        <mxCell id="NhXCefvA0unEZyHpsOm--15" value="30" style="text;html=1;align=center;verticalAlign=middle;resizable=0;points=[];autosize=1;strokeColor=none;fillColor=none;" vertex="1" parent="1">
          <mxGeometry x="370" y="1055" width="40" height="30" as="geometry" />
        </mxCell>
        <mxCell id="NhXCefvA0unEZyHpsOm--20" value="" style="edgeStyle=orthogonalEdgeStyle;rounded=0;orthogonalLoop=1;jettySize=auto;html=1;strokeWidth=2;" edge="1" parent="1" source="NhXCefvA0unEZyHpsOm--18" target="NhXCefvA0unEZyHpsOm--19">
          <mxGeometry relative="1" as="geometry" />
        </mxCell>
        <mxCell id="NhXCefvA0unEZyHpsOm--18" value="&lt;b&gt;Choose&lt;br&gt;Date Range&lt;br&gt;&lt;/b&gt;" style="rounded=0;whiteSpace=wrap;html=1;fillColor=#dae8fc;strokeColor=#6c8ebf;" vertex="1" parent="1">
          <mxGeometry x="140" y="890" width="70" height="40" as="geometry" />
        </mxCell>
        <mxCell id="NhXCefvA0unEZyHpsOm--24" value="" style="edgeStyle=orthogonalEdgeStyle;rounded=0;orthogonalLoop=1;jettySize=auto;html=1;strokeWidth=2;entryX=0.5;entryY=1;entryDx=0;entryDy=0;entryPerimeter=0;" edge="1" parent="1" source="NhXCefvA0unEZyHpsOm--19" target="TCStdb06j948CYmOCQHa-65">
          <mxGeometry relative="1" as="geometry">
            <mxPoint x="175" y="1223" as="targetPoint" />
            <Array as="points">
              <mxPoint x="175" y="1110" />
              <mxPoint x="443" y="1110" />
            </Array>
          </mxGeometry>
        </mxCell>
        <mxCell id="NhXCefvA0unEZyHpsOm--19" value="&lt;b&gt;Show Attendance&lt;br&gt;&lt;/b&gt;" style="rounded=0;whiteSpace=wrap;html=1;fillColor=#dae8fc;strokeColor=#6c8ebf;" vertex="1" parent="1">
          <mxGeometry x="142.5" y="985" width="65" height="40" as="geometry" />
        </mxCell>
        <mxCell id="NhXCefvA0unEZyHpsOm--21" value="31" style="text;html=1;align=center;verticalAlign=middle;resizable=0;points=[];autosize=1;strokeColor=none;fillColor=none;" vertex="1" parent="1">
          <mxGeometry x="350" y="465" width="40" height="30" as="geometry" />
        </mxCell>
        <mxCell id="NhXCefvA0unEZyHpsOm--22" value="32" style="text;html=1;align=center;verticalAlign=middle;resizable=0;points=[];autosize=1;strokeColor=none;fillColor=none;" vertex="1" parent="1">
          <mxGeometry x="140" y="925" width="40" height="30" as="geometry" />
        </mxCell>
        <mxCell id="NhXCefvA0unEZyHpsOm--25" value="33" style="text;html=1;align=center;verticalAlign=middle;resizable=0;points=[];autosize=1;strokeColor=none;fillColor=none;" vertex="1" parent="1">
          <mxGeometry x="167.5" y="1030" width="40" height="30" as="geometry" />
        </mxCell>
      </root>
    </mxGraphModel>
  </diagram>
</mxfile>
